<svg width="21" height="10" viewBox="0 0 21 10" fill="none" xmlns="http://www.w3.org/2000/svg">
    <path d="M11.0997 9.55883L19.8962 2.09114C20.0431 1.96654 20.125 1.80099 20.125 1.62885C20.125 1.4567 20.0431 1.29116 19.8962 1.16656L19.8863 1.15852C19.8151 1.0979 19.7294 1.04964 19.6344 1.01665C19.5395 0.983673 19.4372 0.966664 19.3338 0.966664C19.2305 0.966664 19.1282 0.983673 19.0332 1.01665C18.9382 1.04964 18.8525 1.0979 18.7813 1.15852L10.4983 8.19071L2.21866 1.15851C2.14747 1.0979 2.06178 1.04964 1.9668 1.01665C1.87183 0.983671 1.76955 0.966663 1.66618 0.966663C1.56282 0.966663 1.46054 0.983671 1.36557 1.01665C1.27059 1.04964 1.1849 1.0979 1.11371 1.15851L1.10377 1.16655C0.956919 1.29116 0.874999 1.4567 0.874999 1.62885C0.874999 1.80099 0.956919 1.96654 1.10377 2.09114L9.90031 9.55883C9.97767 9.62451 10.0707 9.67679 10.1738 9.71252C10.2769 9.74824 10.3879 9.76666 10.5 9.76666C10.6121 9.76666 10.7231 9.74824 10.8262 9.71252C10.9293 9.67679 11.0223 9.62451 11.0997 9.55883Z" fill="black"/>
</svg>
