<?xml version="1.0" standalone="no"?>
<!DOCTYPE svg PUBLIC "-//W3C//DTD SVG 20010904//EN"
 "http://www.w3.org/TR/2001/REC-SVG-20010904/DTD/svg10.dtd">
<svg version="1.0" xmlns="http://www.w3.org/2000/svg"
 width="485.000000pt" height="498.000000pt" viewBox="0 0 485.000000 498.000000"
 preserveAspectRatio="xMidYMid meet">

<g transform="translate(0.000000,498.000000) scale(0.100000,-0.100000)"
fill="#000000" stroke="none">
<path d="M770 4975 c0 -2 53 -89 118 -192 65 -103 260 -413 432 -688 172 -275
397 -633 498 -795 243 -386 262 -418 262 -429 0 -5 4 -11 8 -13 8 -3 98 -142
213 -330 33 -54 54 -99 51 -108 -3 -8 -40 -66 -81 -129 -42 -62 -98 -148 -124
-190 -27 -42 -53 -77 -58 -79 -5 -2 -9 -8 -9 -12 0 -8 -276 -428 -290 -440 -3
-3 -9 -13 -15 -22 -5 -9 -238 -358 -518 -775 -279 -417 -507 -761 -507 -765 0
-5 404 -8 898 -8 844 0 900 1 914 18 8 9 189 307 400 662 212 355 473 791 580
970 107 179 254 425 327 547 l133 223 -447 842 c-246 464 -462 868 -480 898
-18 30 -72 129 -120 220 -48 91 -141 263 -208 383 l-120 217 -929 0 c-510 0
-928 -2 -928 -5z"/>
</g>
</svg>
