<svg width="36" height="36" viewBox="0 0 36 36" fill="none" xmlns="http://www.w3.org/2000/svg">
    <path d="M32.4809 17.6759C32.4843 18.1097 32.3524 18.5337 32.1037 18.8891C31.8549 19.2444 31.5017 19.5134 31.093 19.6587L22.707 22.7083L19.6587 31.093C19.5085 31.4977 19.238 31.8468 18.8835 32.0933C18.5291 32.3398 18.1077 32.472 17.6759 32.472C17.2442 32.472 16.8228 32.3398 16.4683 32.0933C16.1139 31.8468 15.8434 31.4977 15.6931 31.093L12.6449 22.707L4.25889 19.6587C3.85413 19.5085 3.50504 19.238 3.25853 18.8835C3.01202 18.5291 2.87988 18.1077 2.87988 17.6759C2.87988 17.2442 3.01202 16.8228 3.25853 16.4683C3.50504 16.1139 3.85413 15.8434 4.25889 15.6931L12.6449 12.6449L15.6931 4.25889C15.8434 3.85413 16.1139 3.50504 16.4683 3.25853C16.8228 3.01202 17.2442 2.87988 17.6759 2.87988C18.1077 2.87988 18.5291 3.01202 18.8835 3.25853C19.238 3.50504 19.5085 3.85413 19.6587 4.25889L22.7083 12.6449L31.093 15.6931C31.5017 15.8384 31.8549 16.1074 32.1037 16.4628C32.3524 16.8182 32.4843 17.2422 32.4809 17.6759Z" fill="#706CFF"/>
</svg>
