<svg width="36" height="36" viewBox="0 0 36 36" fill="none" xmlns="http://www.w3.org/2000/svg">
<path d="M32.481 17.6769C32.4844 18.1107 32.3526 18.5347 32.1038 18.89C31.8551 19.2454 31.5018 19.5144 31.0931 19.6597L22.7071 22.7093L19.6589 31.0939C19.5086 31.4987 19.2381 31.8478 18.8836 32.0943C18.5292 32.3408 18.1078 32.4729 17.676 32.4729C17.2443 32.4729 16.8229 32.3408 16.4684 32.0943C16.114 31.8478 15.8435 31.4987 15.6932 31.0939L12.645 22.708L4.25902 19.6597C3.85425 19.5095 3.50517 19.239 3.25865 18.8845C3.01214 18.5301 2.88 18.1086 2.88 17.6769C2.88 17.2452 3.01214 16.8238 3.25865 16.4693C3.50517 16.1148 3.85425 15.8443 4.25902 15.6941L12.645 12.6458L15.6932 4.25987C15.8435 3.85511 16.114 3.50602 16.4684 3.25951C16.8229 3.01299 17.2443 2.88086 17.676 2.88086C18.1078 2.88086 18.5292 3.01299 18.8836 3.25951C19.2381 3.50602 19.5086 3.85511 19.6589 4.25987L22.7084 12.6458L31.0931 15.6941C31.5018 15.8394 31.8551 16.1084 32.1038 16.4638C32.3526 16.8191 32.4844 17.2432 32.481 17.6769Z" fill="#8DB9FC"/>
</svg>
