<svg width="50" height="50" viewBox="0 0 50 50" fill="none" xmlns="http://www.w3.org/2000/svg">
    <path d="M22.7906 25L9.83127 12.0438C9.686 11.8985 9.57076 11.726 9.49214 11.5362C9.41351 11.3464 9.37305 11.143 9.37305 10.9375C9.37305 10.7321 9.41351 10.5286 9.49214 10.3388C9.57076 10.149 9.686 9.97655 9.83127 9.83127C9.97655 9.686 10.149 9.57076 10.3388 9.49214C10.5286 9.41351 10.7321 9.37305 10.9375 9.37305C11.143 9.37305 11.3464 9.41351 11.5362 9.49214C11.726 9.57076 11.8985 9.686 12.0438 9.83127L25 22.7906L37.9563 9.83127C38.2497 9.53787 38.6476 9.37305 39.0625 9.37305C39.4774 9.37305 39.8754 9.53787 40.1688 9.83127C40.4622 10.1247 40.627 10.5226 40.627 10.9375C40.627 11.3524 40.4622 11.7504 40.1688 12.0438L27.2094 25L40.1688 37.9563C40.4622 38.2497 40.627 38.6476 40.627 39.0625C40.627 39.4774 40.4622 39.8754 40.1688 40.1688C39.8754 40.4622 39.4774 40.627 39.0625 40.627C38.6476 40.627 38.2497 40.4622 37.9563 40.1688L25 27.2094L12.0438 40.1688C11.7504 40.4622 11.3524 40.627 10.9375 40.627C10.5226 40.627 10.1247 40.4622 9.83127 40.1688C9.53787 39.8754 9.37305 39.4774 9.37305 39.0625C9.37305 38.6476 9.53787 38.2497 9.83127 37.9563L22.7906 25Z" fill="black"/>
</svg>
