<svg width="45" height="41" viewBox="0 0 45 41" fill="none" xmlns="http://www.w3.org/2000/svg">
    <path fill-rule="evenodd" clip-rule="evenodd" d="M23 0.280029C17.9168 0.280029 17.2789 0.301629 15.2816 0.392349C13.2887 0.483069 11.9279 0.799869 10.737 1.26211C9.4881 1.73248 8.35684 2.46961 7.42211 3.42211C6.46944 4.35726 5.7323 5.48903 5.26211 6.73843C4.79987 7.92787 4.48451 9.28867 4.39235 11.2816C4.30163 13.2789 4.28003 13.9168 4.28003 19C4.28003 24.0832 4.30163 24.7211 4.39235 26.7184C4.48307 28.7114 4.79987 30.0722 5.26211 31.2616C5.74163 32.4928 6.38099 33.5368 7.42211 34.5779C8.35684 35.5304 9.4881 36.2676 10.737 36.7379C11.9279 37.1987 13.2887 37.5155 15.2816 37.6077C17.2789 37.6984 17.9168 37.72 23 37.72C28.0832 37.72 28.7212 37.6984 30.7184 37.6077C32.7114 37.517 34.0722 37.2002 35.2616 36.7379C36.5111 36.2678 37.6428 35.5307 38.578 34.5779C39.5306 33.6428 40.2678 32.511 40.738 31.2616C41.1988 30.0722 41.5156 28.7114 41.6077 26.7184C41.6984 24.7211 41.72 24.0832 41.72 19C41.72 13.9168 41.6984 13.2789 41.6077 11.2816C41.517 9.28867 41.2002 7.92787 40.7365 6.73843C40.2668 5.48916 39.5301 4.3574 38.578 3.42211C37.6428 2.4694 36.5111 1.73225 35.2616 1.26211C34.0722 0.80131 32.7114 0.484509 30.7184 0.392349C28.7212 0.301629 28.0832 0.280029 23 0.280029ZM23 3.65251C27.9983 3.65251 28.5901 3.67267 30.5644 3.76195C32.3888 3.84547 33.381 4.15075 34.0405 4.40707C34.9146 4.74691 35.5381 5.15155 36.1933 5.80675C36.8485 6.46195 37.2531 7.08547 37.593 7.95955C37.8493 8.61907 38.1546 9.60979 38.2381 11.4357C38.3274 13.4085 38.3476 14.0018 38.3476 19C38.3476 23.9983 38.3274 24.5901 38.2381 26.5643C38.1546 28.3903 37.8493 29.381 37.593 30.0405C37.2931 30.8537 36.8148 31.5893 36.1933 32.1933C35.5893 32.8149 34.8537 33.2932 34.0405 33.593C33.381 33.8493 32.3888 34.1546 30.5644 34.2381C28.5916 34.3274 27.9983 34.3475 23 34.3475C18.0018 34.3475 17.4085 34.3274 15.4357 34.2381C13.6098 34.1546 12.6191 33.8493 11.9595 33.593C11.1464 33.2932 10.4107 32.8149 9.80675 32.1933C9.18529 31.5892 8.70702 30.8536 8.40707 30.0405C8.15075 29.381 7.84547 28.3903 7.76195 26.5643C7.67267 24.5915 7.65251 23.9983 7.65251 19C7.65251 14.0018 7.67267 13.4099 7.76195 11.4357C7.84547 9.60979 8.15075 8.61907 8.40707 7.95955C8.74691 7.08547 9.15155 6.46195 9.80675 5.80675C10.4108 5.18521 11.1464 4.70693 11.9595 4.40707C12.6191 4.15075 13.6098 3.84547 15.4357 3.76195C17.4085 3.67267 18.0018 3.65251 23 3.65251Z" fill="white"/>
    <path fill-rule="evenodd" clip-rule="evenodd" d="M23 8.92004C20.3267 8.92004 17.7628 9.98204 15.8724 11.8724C13.982 13.7628 12.92 16.3267 12.92 19C12.92 21.6734 13.982 24.2373 15.8724 26.1277C17.7628 28.018 20.3267 29.08 23 29.08C25.6734 29.08 28.2373 28.018 30.1277 26.1277C32.018 24.2373 33.08 21.6734 33.08 19C33.08 16.3267 32.018 13.7628 30.1277 11.8724C28.2373 9.98204 25.6734 8.92004 23 8.92004ZM23 25.48C21.2814 25.48 19.6332 24.7973 18.418 23.5821C17.2028 22.3669 16.52 20.7186 16.52 19C16.52 17.2814 17.2028 15.6332 18.418 14.418C19.6332 13.2028 21.2814 12.52 23 12.52C24.7186 12.52 26.3669 13.2028 27.5821 14.418C28.7973 15.6332 29.48 17.2814 29.48 19C29.48 20.7186 28.7973 22.3669 27.5821 23.5821C26.3669 24.7973 24.7186 25.48 23 25.48ZM35.528 9.06404C35.528 9.36661 35.4685 9.66621 35.3527 9.94574C35.2369 10.2253 35.0672 10.4793 34.8532 10.6932C34.6393 10.9072 34.3853 11.0769 34.1057 11.1927C33.8262 11.3084 33.5266 11.368 33.224 11.368C32.9215 11.368 32.6219 11.3084 32.3423 11.1927C32.0628 11.0769 31.8088 10.9072 31.5949 10.6932C31.3809 10.4793 31.2112 10.2253 31.0954 9.94574C30.9796 9.66621 30.92 9.36661 30.92 9.06404C30.92 8.45298 31.1628 7.86695 31.5949 7.43487C32.027 7.00278 32.613 6.76004 33.224 6.76004C33.8351 6.76004 34.4211 7.00278 34.8532 7.43487C35.2853 7.86695 35.528 8.45298 35.528 9.06404Z" fill="white"/>
</svg>
