<svg width="46" height="46" viewBox="0 0 46 46" fill="none" xmlns="http://www.w3.org/2000/svg">
    <path d="M24.4583 17.5827C24.4583 18.091 24.2564 18.5785 23.897 18.938C23.5375 19.2974 23.05 19.4993 22.5417 19.4993C22.0333 19.4993 21.5458 19.2974 21.1864 18.938C20.8269 18.5785 20.625 18.091 20.625 17.5827C20.625 17.0744 20.8269 16.5868 21.1864 16.2274C21.5458 15.8679 22.0333 15.666 22.5417 15.666C23.05 15.666 23.5375 15.8679 23.897 16.2274C24.2564 16.5868 24.4583 17.0744 24.4583 17.5827Z" stroke="black" stroke-width="4" stroke-linejoin="round"/>
    <path d="M33.0833 18.5417C33.0833 24.3645 29.25 31 22.5417 38.6667C15.8333 31 12 24.3645 12 18.5417C12 15.7458 13.1106 13.0645 15.0876 11.0876C17.0645 9.11064 19.7458 8 22.5417 8C25.3375 8 28.0188 9.11064 29.9958 11.0876C31.9727 13.0645 33.0833 15.7458 33.0833 18.5417Z" stroke="black" stroke-width="3" stroke-linejoin="round"/>
</svg>