<svg width="36" height="36" viewBox="0 0 36 36" fill="none" xmlns="http://www.w3.org/2000/svg">
<path d="M32.481 17.6759C32.4844 18.1097 32.3526 18.5337 32.1038 18.8891C31.8551 19.2444 31.5018 19.5134 31.0931 19.6587L22.7071 22.7083L19.6589 31.093C19.5086 31.4977 19.2381 31.8468 18.8836 32.0933C18.5292 32.3398 18.1078 32.472 17.676 32.472C17.2443 32.472 16.8229 32.3398 16.4684 32.0933C16.114 31.8468 15.8435 31.4977 15.6932 31.093L12.645 22.707L4.25902 19.6587C3.85425 19.5085 3.50517 19.238 3.25865 18.8835C3.01214 18.5291 2.88 18.1077 2.88 17.6759C2.88 17.2442 3.01214 16.8228 3.25865 16.4683C3.50517 16.1139 3.85425 15.8434 4.25902 15.6931L12.645 12.6449L15.6932 4.25889C15.8435 3.85413 16.114 3.50504 16.4684 3.25853C16.8229 3.01202 17.2443 2.87988 17.676 2.87988C18.1078 2.87988 18.5292 3.01202 18.8836 3.25853C19.2381 3.50504 19.5086 3.85413 19.6589 4.25889L22.7084 12.6449L31.0931 15.6931C31.5018 15.8384 31.8551 16.1074 32.1038 16.4628C32.3526 16.8182 32.4844 17.2422 32.481 17.6759Z" fill="white"/>
</svg>
