<svg width="48" height="38" viewBox="0 0 48 38" fill="none" xmlns="http://www.w3.org/2000/svg">
    <path d="M42.0642 1.41955C41.5446 0.982363 40.9175 0.69586 40.2497 0.590543C39.5818 0.485226 38.8983 0.565037 38.2717 0.821479L5.56483 14.1766C4.86556 14.4677 4.27034 14.967 3.85811 15.6082C3.44589 16.2494 3.23616 17.0022 3.25675 17.7667C3.27734 18.5312 3.52728 19.2714 3.9734 19.8889C4.41952 20.5064 5.04074 20.9722 5.75464 21.2243L12.3705 23.552L16.0571 35.8864C16.1076 36.051 16.1807 36.2075 16.2743 36.3516C16.2889 36.3737 16.309 36.3885 16.3236 36.4125C16.4311 36.5639 16.561 36.6977 16.7086 36.8093C16.7499 36.842 16.7925 36.8728 16.8364 36.9016C17.0093 37.0177 17.2007 37.1026 17.4022 37.1527L17.4259 37.1545L17.4368 37.1601C17.5588 37.1848 17.6829 37.1972 17.8073 37.197L17.8402 37.1915C18.0271 37.1883 18.2124 37.1559 18.3895 37.0955C18.4315 37.0807 18.4662 37.0585 18.5063 37.0401C18.6388 36.9851 18.7644 36.9145 18.8805 36.8297C18.9729 36.7502 19.0654 36.6709 19.1579 36.5915L24.0892 31.0852L31.4442 36.8481C32.0916 37.3581 32.8885 37.6355 33.7091 37.6363C34.5691 37.6353 35.4027 37.3352 36.0699 36.7864C36.7371 36.2375 37.1975 35.4733 37.3738 34.6219L43.329 5.056C43.4637 4.39084 43.4171 3.70116 43.1944 3.06067C42.9716 2.42017 42.581 1.85293 42.0642 1.41955ZM18.5301 24.139C18.2773 24.3942 18.1046 24.7191 18.0336 25.073L17.4679 27.8493L16.037 23.0629L23.4559 19.1551L18.5301 24.139ZM33.6817 33.9297L24.9889 27.1183C24.6252 26.8344 24.1691 26.6996 23.7115 26.7406C23.2538 26.7817 22.8283 26.9956 22.5196 27.3398L20.9391 29.1027L21.4976 26.3578L34.4245 13.2832C34.7312 12.9711 34.9176 12.5584 34.95 12.1196C34.9825 11.6808 34.8588 11.2446 34.6014 10.8899C34.344 10.5351 33.9698 10.285 33.5461 10.1847C33.1225 10.0843 32.6774 10.1404 32.291 10.3427L13.7393 20.1112L6.94092 17.5953L39.7537 4.32133L33.6817 33.9297Z" fill="white"/>
</svg>
