<svg width="39" height="38" viewBox="0 0 39 38" fill="none" xmlns="http://www.w3.org/2000/svg">
    <path d="M12.6069 8.59504C12.2894 8.54883 11.9656 8.61274 11.6895 8.77613H11.6656C11.0249 9.15196 10.4475 9.62517 9.95553 10.1821C9.54553 10.6553 9.32344 11.1336 9.26536 11.5949C9.23119 11.8682 9.25511 12.145 9.3354 12.4063L9.36615 12.4234C9.8274 13.7781 10.4287 15.0816 11.1633 16.3082C12.1105 18.031 13.2761 19.6244 14.6312 21.0488L14.6722 21.1069L14.7372 21.1547L14.7764 21.2008L14.8243 21.2418C16.2537 22.601 17.8508 23.7722 19.5769 24.7268C21.55 25.8014 22.7475 26.3088 23.4667 26.5206V26.5308C23.6769 26.5958 23.8682 26.6248 24.0612 26.6248C24.6738 26.5795 25.2535 26.3306 25.7081 25.9175C26.2633 25.4255 26.7331 24.8464 27.0987 24.2024V24.1904C27.442 23.5413 27.3259 22.9297 26.8304 22.5145C25.8353 21.6451 24.7593 20.8728 23.6171 20.2083C22.8517 19.7932 22.0744 20.0443 21.7601 20.4645L21.0887 21.3119C20.7437 21.7321 20.1184 21.674 20.1184 21.674L20.1013 21.6843C15.4359 20.4936 14.1905 15.77 14.1905 15.77C14.1905 15.77 14.1324 15.1277 14.5646 14.7997L15.4051 14.1232C15.8083 13.7952 16.0884 13.0196 15.6562 12.2543C14.9961 11.111 14.2254 10.0353 13.3551 9.04263C13.1653 8.809 12.8991 8.64989 12.6034 8.59333L12.6069 8.59504ZM20.4908 6.54163C20.2643 6.54163 20.047 6.63162 19.8868 6.79181C19.7266 6.95199 19.6367 7.16925 19.6367 7.39579C19.6367 7.62233 19.7266 7.83959 19.8868 7.99978C20.047 8.15997 20.2643 8.24996 20.4908 8.24996C22.6502 8.24996 24.4439 8.9555 25.8635 10.3085C26.593 11.0482 27.1619 11.9246 27.5343 12.8847C27.9084 13.8465 28.0792 14.8732 28.0348 15.9016C28.0253 16.1281 28.1062 16.3492 28.2596 16.5161C28.4131 16.683 28.6266 16.7821 28.8531 16.7916C29.0797 16.8011 29.3007 16.7203 29.4676 16.5668C29.6345 16.4134 29.7336 16.1999 29.7432 15.9733C29.7961 14.7083 29.5862 13.446 29.1264 12.2663C28.6647 11.0809 27.9647 10.0029 27.0696 9.099L27.0525 9.08192C25.2912 7.39921 23.0636 6.54163 20.4908 6.54163Z" fill="white"/>
    <path d="M20.4311 9.35022C20.2045 9.35022 19.9873 9.44021 19.8271 9.6004C19.6669 9.76059 19.5769 9.97785 19.5769 10.2044C19.5769 10.4309 19.6669 10.6482 19.8271 10.8084C19.9873 10.9686 20.2045 11.0586 20.4311 11.0586H20.4601C22.0181 11.1696 23.1524 11.6889 23.9468 12.5414C24.7617 13.4195 25.1837 14.5111 25.1512 15.8607C25.146 16.0872 25.231 16.3065 25.3875 16.4704C25.544 16.6343 25.7592 16.7293 25.9857 16.7345C26.2123 16.7397 26.4316 16.6547 26.5955 16.4982C26.7593 16.3417 26.8543 16.1265 26.8595 15.9C26.9005 14.1284 26.3299 12.5995 25.199 11.3797V11.3763C24.0425 10.1361 22.4554 9.48005 20.5455 9.35193L20.5165 9.34851L20.4311 9.35022Z" fill="white"/>
    <path d="M20.3986 12.2117C20.2843 12.2016 20.1691 12.2146 20.06 12.2501C19.9508 12.2855 19.8499 12.3425 19.7633 12.4178C19.6767 12.493 19.6061 12.585 19.5558 12.6881C19.5055 12.7913 19.4765 12.9035 19.4705 13.0181C19.4645 13.1327 19.4817 13.2473 19.521 13.3551C19.5603 13.4629 19.621 13.5617 19.6993 13.6456C19.7776 13.7295 19.8721 13.7967 19.977 13.8432C20.0818 13.8898 20.195 13.9147 20.3098 13.9166C21.0239 13.9542 21.48 14.1694 21.767 14.4581C22.0557 14.7486 22.2709 15.2149 22.3102 15.9444C22.3124 16.059 22.3375 16.172 22.3843 16.2767C22.431 16.3814 22.4984 16.4756 22.5823 16.5537C22.6662 16.6319 22.765 16.6923 22.8728 16.7314C22.9805 16.7705 23.0951 16.7875 23.2095 16.7815C23.324 16.7754 23.4361 16.7463 23.5391 16.696C23.6422 16.6457 23.734 16.5751 23.8092 16.4886C23.8843 16.402 23.9413 16.3012 23.9767 16.1922C24.0121 16.0831 24.0252 15.9681 24.0151 15.8538C23.9605 14.8288 23.6393 13.9234 22.9816 13.2572C22.3205 12.5909 21.4202 12.2663 20.3986 12.2117Z" fill="white"/>
    <path fill-rule="evenodd" clip-rule="evenodd" d="M11.0728 2.07273C16.5089 0.857594 22.1461 0.857594 27.5822 2.07273L28.1613 2.20085C29.7504 2.5561 31.2099 3.34497 32.3776 4.47981C33.5453 5.61464 34.3755 7.05101 34.776 8.62931C36.1558 14.0667 36.1558 19.7627 34.776 25.2001C34.3755 26.7784 33.5453 28.2148 32.3776 29.3496C31.2099 30.4845 29.7504 31.2734 28.1613 31.6286L27.5805 31.7567C24.1758 32.5181 20.6822 32.805 17.1989 32.6092L12.6667 36.6648C12.4958 36.8178 12.287 36.9221 12.0621 36.9668C11.8372 37.0116 11.6043 36.9951 11.3879 36.9192C11.1715 36.8433 10.9794 36.7107 10.8318 36.5352C10.6841 36.3597 10.5862 36.1478 10.5484 35.9216L9.79842 31.4424C8.36031 30.9949 7.061 30.1861 6.02466 29.0932C4.98831 28.0004 4.24957 26.66 3.87904 25.2001C2.49914 19.7627 2.49914 14.0667 3.87904 8.62931C4.27951 7.05101 5.10972 5.61464 6.27743 4.47981C7.44514 3.34497 8.90462 2.5561 10.4937 2.20085L11.0728 2.07273ZM27.0235 4.57202C21.9554 3.43906 16.6996 3.43906 11.6315 4.57202L11.0506 4.70185C9.92435 4.9541 8.89004 5.51358 8.06254 6.31816C7.23503 7.12274 6.64673 8.14094 6.36296 9.25968C5.08805 14.2834 5.08805 19.546 6.36296 24.5698C6.64687 25.6887 7.23542 26.7071 8.06325 27.5117C8.89107 28.3163 9.92575 28.8756 11.0523 29.1276L11.2061 29.1618C11.4548 29.2174 11.6813 29.3459 11.8566 29.531C12.0319 29.716 12.148 29.9491 12.1901 30.2004L12.6923 33.2037L15.8903 30.3422C16.018 30.2276 16.1675 30.1398 16.3298 30.0841C16.492 30.0283 16.6639 30.0057 16.835 30.0176C20.2501 30.2599 23.6822 30.0038 27.0235 29.2574L27.6027 29.1276C28.7292 28.8756 29.7639 28.3163 30.5917 27.5117C31.4196 26.7071 32.0081 25.6887 32.292 24.5698C33.5665 19.5473 33.5665 14.2839 32.292 9.25968C32.0081 8.14072 31.4196 7.12237 30.5917 6.31777C29.7639 5.51317 28.7292 4.95381 27.6027 4.70185L27.0235 4.57202Z" fill="white"/>
</svg>
